<?xml version="1.0" encoding="iso-8859-1"?>
<!-- Generator: Adobe Illustrator 18.0.0, SVG Export Plug-In . SVG Version: 6.00 Build 0)  -->
<!DOCTYPE svg PUBLIC "-//W3C//DTD SVG 1.1//EN" "http://www.w3.org/Graphics/SVG/1.1/DTD/svg11.dtd">
<svg version="1.1" id="Capa_1" xmlns="http://www.w3.org/2000/svg" xmlns:xlink="http://www.w3.org/1999/xlink" x="0px" y="0px"
	 viewBox="0 0 493.927 493.927" style="enable-background:new 0 0 493.927 493.927;" xml:space="preserve">
<g id="XMLID_313_">
	<path id="XMLID_319_" d="M38.758,234.499c16.794-4.117,27.073-21.056,22.956-37.851c-4.108-16.801-21.048-27.074-37.842-22.965
		C7.072,177.801-3.209,194.74,0.907,211.534C5.025,228.337,21.964,238.607,38.758,234.499z"/>
	<path id="XMLID_318_" d="M400.077,146.024c16.803-4.109,27.073-21.057,22.957-37.842c-4.11-16.802-21.049-27.074-37.835-22.965
		c-16.809,4.117-27.073,21.048-22.964,37.85C366.351,139.861,383.291,150.141,400.077,146.024z"/>
	<path id="XMLID_314_" d="M493.565,256.893c-1.646-6.725-8.503-10.825-15.138-9.188l-19.46,4.77c0.327-1.818,0.205-3.71-0.098-5.618
		c-0.978-4.075-18.383-76.988-19.817-80.91c-2.593-11.021-16.6-18.929-29.381-15.823c-12.457,3.057-20.307,14.942-18.773,27.366
		l-38.96,37.369c-6.651,6.384-6.872,16.949-0.489,23.609c1.06,1.1,2.365,1.736,3.62,2.478c-5.25,2.005-8.421,7.484-7.044,13.084
		l5.91,24.155l-84.064,20.576c-5.333-5.698-12.865-9.31-21.285-9.31c-13.41,0-24.58,9.074-28.018,21.384l-79.826,19.549
		l-5.919-24.163c-1.36-5.528-6.563-8.951-12.064-8.365c0.725-1.199,1.435-2.421,1.851-3.831c2.584-8.853-2.495-18.122-11.34-20.714
		l-51.831-15.146c-4.387-11.732-16.786-18.677-29.3-15.596c-12.627,3.09-21.528,16.532-18.749,27.571
		c0.538,3.994,19.809,80.942,19.809,80.942c0.611,1.826,1.37,3.563,2.504,5.014l-19.445,4.762
		c-6.716,1.646-10.833,8.421-9.185,15.138c1.654,6.767,8.486,10.825,15.138,9.187l64.491-15.79l-3.146,19.916
		c-1.435,9.114,4.776,17.657,13.884,19.1c9.179,1.434,17.673-4.827,19.1-13.882l5.331-33.742l102.953-25.207
		c2.202,3.082,4.974,5.698,8.169,7.728l-24.961,39.448c-3.408,5.396-3.62,12.211-0.54,17.804c3.074,5.585,8.952,9.058,15.327,9.058
		h51.538c6.376,0,12.253-3.473,15.327-9.058c3.081-5.593,2.869-12.408-0.539-17.804l-24.961-39.448
		c7.076-4.493,12.008-11.927,13.215-20.601l107.331-26.273l20.307,27.456c5.486,7.409,15.938,8.967,23.355,3.498
		c7.411-5.486,8.975-15.946,3.497-23.357l-11.992-16.206l64.483-15.791C491.096,270.384,495.211,263.609,493.565,256.893z
		 M399.824,215.202l6.375,26.013l-28.377,6.954c-2.666,0.653-5.07,1.948-7.061,3.71l-0.789-3.227
		c-0.563-2.308-1.932-4.118-3.58-5.593c3.139-0.563,6.196-1.729,8.667-4.101L399.824,215.202z M108.589,306.043
		c1.647,0,3.245-0.311,4.784-0.775c-0.701,1.988-1.043,4.124-0.496,6.334l0.79,3.219c-2.576-0.636-5.307-0.676-7.972-0.023
		l-28.386,6.946l-6.368-26.014C74.839,296.87,104.856,306.043,108.589,306.043z"/>
</g>
<g>
</g>
<g>
</g>
<g>
</g>
<g>
</g>
<g>
</g>
<g>
</g>
<g>
</g>
<g>
</g>
<g>
</g>
<g>
</g>
<g>
</g>
<g>
</g>
<g>
</g>
<g>
</g>
<g>
</g>
</svg>
