<svg id="Layer_1" enable-background="new 0 0 192 192" height="512" viewBox="0 0 192 192" width="512" xmlns="http://www.w3.org/2000/svg"><path d="m16 160h160c8.8 0 16 7.2 16 16 0 8.8-7.2 16-16 16h-160c-8.8 0-16-7.2-16-16 0-8.8 7.2-16 16-16z"/><path d="m32 120h128c8.8 0 16 7.2 16 16 0 8.8-7.2 16-16 16h-128c-8.8 0-16-7.2-16-16 0-8.8 7.2-16 16-16z"/><path d="m48 112h96c8.8 0 16-7.2 16-16 0-8.8-7.2-16-16-16h-40v-16.4c12.5-4.4 19-18.1 14.6-30.6s-18.1-19-30.6-14.6-19 18.1-14.6 30.6c2.4 6.8 7.8 12.2 14.6 14.6v16.4h-40c-8.8 0-16 7.2-16 16 0 8.8 7.2 16 16 16zm56-88c4.4 0 8 3.6 8 8s-3.6 8-8 8-8-3.6-8-8 3.6-8 8-8z"/></svg>