<svg height="512" viewBox="0 0 192 192" width="512" xmlns="http://www.w3.org/2000/svg"><path d="m160 24h-128.13a32.083 32.083 0 0 0 -31.87 32v136h16v-16h16v16h16v-80h-16v16h-16v-71.956a16.038 16.038 0 0 1 15.87-16.044h24.13v17.376a24 24 0 1 0 16 0v-17.376h40v17.376a24 24 0 1 0 16 0v-17.376h32a16.019 16.019 0 0 1 16 16v104h-16v-16h8v-16h-8v-16h-16v80h16v-16h16v16h16v-136a32.036 32.036 0 0 0 -32-32zm-128 120v16h-16v-16zm32-56a8 8 0 1 1 8-8 8.009 8.009 0 0 1 -8 8zm56 0a8 8 0 1 1 8-8 8.009 8.009 0 0 1 -8 8z"/></svg>