<?xml version="1.0" encoding="iso-8859-1"?>
<!-- Generator: Adobe Illustrator 18.1.1, SVG Export Plug-In . SVG Version: 6.00 Build 0)  -->
<svg version="1.1" id="Capa_1" xmlns="http://www.w3.org/2000/svg" xmlns:xlink="http://www.w3.org/1999/xlink" x="0px" y="0px"
	 viewBox="0 0 25.96 25.96" style="enable-background:new 0 0 25.96 25.96;" xml:space="preserve">
<g>
	<path style="fill:#030104;" d="M16.699,6.25c-1.11-1.11-2.585-1.721-4.154-1.721C10.977,4.529,9.5,5.14,8.39,6.25l-6.673,6.673
		c-2.29,2.291-2.29,6.018,0,8.309l3.006,3.004c1.11,1.11,2.585,1.722,4.155,1.723c1.568,0,3.043-0.611,4.154-1.721l6.673-6.674
		c1.11-1.11,1.722-2.585,1.722-4.154s-0.611-3.044-1.722-4.155L16.699,6.25z M18.832,15.453l-2.716-2.717
		c-0.391-0.391-1.023-0.391-1.414,0c-0.391,0.39-0.391,1.024,0,1.415l2.793,2.793l-1.586,1.586l-2.793-2.793
		c-0.391-0.391-1.023-0.391-1.414,0s-0.391,1.023,0,1.414l2.793,2.793l-1.586,1.586l-2.794-2.794c-0.391-0.391-1.023-0.391-1.414,0
		s-0.391,1.023,0,1.414l2.781,2.781C10,24.272,7.56,24.244,6.137,22.82l-3.006-3.004c-1.51-1.511-1.51-3.97,0-5.48l6.673-6.672
		c0.732-0.732,1.706-1.135,2.741-1.135s2.008,0.403,2.74,1.135l3.005,3.005c0.732,0.732,1.136,1.706,1.136,2.741
		C19.427,14.145,19.213,14.845,18.832,15.453z M24.591,3.924c-0.328,0.328-0.257,0.975-0.128,1.184
		c0.769,1.243,0.622,2.388-0.521,3.531l-1.156,1.157c-0.512,0.514-1.688-0.723-3.172-2.206l-1.241-1.242
		c-1.484-1.483-2.762-2.614-2.206-3.172l1.157-1.158c1.132-1.131,2.261-1.292,3.495-0.542c0.221,0.135,0.894,0.223,1.22-0.105
		c0.327-0.328,1.088-1.088,1.088-1.088c0.476-0.477,1.069-0.3,1.548,0.178l0.826,0.828c0.477,0.476,0.654,1.072,0.177,1.547
		C25.678,2.836,24.918,3.596,24.591,3.924z"/>
</g>
<g>
</g>
<g>
</g>
<g>
</g>
<g>
</g>
<g>
</g>
<g>
</g>
<g>
</g>
<g>
</g>
<g>
</g>
<g>
</g>
<g>
</g>
<g>
</g>
<g>
</g>
<g>
</g>
<g>
</g>
</svg>
